<?xml version="1.0" encoding="utf-8"?>
<!-- Generator: Adobe Illustrator 25.1.0, SVG Export Plug-In . SVG Version: 6.00 Build 0)  -->
<svg version="1.1" id="Capa_1" xmlns="http://www.w3.org/2000/svg" xmlns:xlink="http://www.w3.org/1999/xlink" x="0px" y="0px"
	 viewBox="0 0 512 409" style="enable-background:new 0 0 512 409;" xml:space="preserve">
<style type="text/css">
	.st0{fill:#FFFFFF;}
</style>
<g>
	<g>
		<path class="st0" d="M492,184H20c-11,0-20,9-20,20c0,11,9,20,20,20h472c11,0,20-9,20-20S503,184,492,184z"/>
	</g>
</g>
<g>
	<g>
		<path class="st0" d="M492,24H20C9,24,0,33,0,44s9,20,20,20h472c11,0,20-9,20-20S503,24,492,24z"/>
	</g>
</g>
<g>
	<g>
		<path class="st0" d="M492,344H20c-11,0-20,9-20,20s9,20,20,20h472c11,0,20-9,20-20S503,344,492,344z"/>
	</g>
</g>
</svg>
