<?xml version="1.0" encoding="utf-8"?>
<!-- Generator: Adobe Illustrator 25.1.0, SVG Export Plug-In . SVG Version: 6.00 Build 0)  -->
<svg version="1.1" id="Calque_1" xmlns="http://www.w3.org/2000/svg" xmlns:xlink="http://www.w3.org/1999/xlink" x="0px" y="0px"
	 viewBox="0 0 350 200" style="enable-background:new 0 0 350 200;" xml:space="preserve">
<style type="text/css">
	.st0{fill:#E7E6E6;}
	.st1{fill:#403E56;}
</style>
<path class="st0" d="M311.4,180.3H51.2V30.2h260.2V180.3z M56.6,176h249.5V34.5H56.6L56.6,176z"/>
<line class="st1" x1="282.2" y1="18.3" x2="34.5" y2="18.3"/>
<polygon class="st1" points="42.9,160.1 41.1,160.1 41.1,21 290.6,21 290.6,22.5 42.9,22.5 "/>
<circle class="st0" cx="90.3" cy="67.1" r="11.8"/>
<path id="a708a452-d00d-497b-991d-80b2d0d981ef" class="st0" d="M111.5,57.8c-1.6,0-2.9,1.4-2.9,3c0,1.6,1.3,2.8,2.9,2.9h73.2
	c1.6,0,2.9-1.3,3-2.9c0-1.6-1.3-2.9-2.9-3c0,0-0.1,0-0.1,0H111.5z"/>
<path id="ef9045bc-17c8-4d9b-b334-2c1b5c7fd224" class="st0" d="M111.5,70.5c-1.6,0-2.9,1.4-2.9,3c0,1.6,1.3,2.8,2.9,2.9h120.4
	c1.6,0,2.9-1.3,3-2.9c0-1.6-1.3-2.9-2.9-3c0,0-0.1,0-0.1,0H111.5z"/>
<path id="a708a452-d00d-497b-991d-80b2d0d981ef_1_" class="st0" d="M111.5,108.2c-1.6,0-2.9,1.4-2.9,3c0,1.6,1.3,2.8,2.9,2.9h73.2
	c1.6,0,2.9-1.3,3-2.9c0-1.6-1.3-2.9-2.9-3c0,0-0.1,0-0.1,0H111.5z"/>
<path id="ef9045bc-17c8-4d9b-b334-2c1b5c7fd224_1_" class="st0" d="M111.5,123.4c-1.6,0-2.9,1.4-2.9,3c0,1.6,1.3,2.8,2.9,2.9h120.4
	c1.6,0,2.9-1.3,3-2.9c0-1.6-1.3-2.9-2.9-3c0,0-0.1,0-0.1,0H111.5z"/>
<path id="ef9045bc-17c8-4d9b-b334-2c1b5c7fd224_2_" class="st0" d="M111.5,137.3c-1.6,0-2.9,1.4-2.9,3c0,1.6,1.3,2.8,2.9,2.9h120.4
	c1.6,0,2.9-1.3,3-2.9c0-1.6-1.3-2.9-2.9-3c0,0-0.1,0-0.1,0H111.5z"/>
<path id="ef9045bc-17c8-4d9b-b334-2c1b5c7fd224_3_" class="st0" d="M111.5,150.8c-1.6,0-2.9,1.4-2.9,3c0,1.6,1.3,2.8,2.9,2.9h120.4
	c1.6,0,2.9-1.3,3-2.9c0-1.6-1.3-2.9-2.9-3c0,0-0.1,0-0.1,0H111.5z"/>
</svg>
